{"glyphs":{"0":{"ha":672,"o":"m 336 -16 l 336 -16 q 217 13 270 -16 q 127 92 164 41 q 69 210 89 142 q 49 357 49 278 l 49 357 q 69 506 49 438 q 127 625 89 574 q 217 704 164 676 q 336 732 270 732 l 336 732 q 455 704 402 732 q 546 625 508 676 q 603 506 583 574 q 623 357 623 438 l 623 357 q 603 210 623 278 q 546 92 583 142 q 455 13 508 41 q 336 -16 402 -16 m 336 107 l 336 107 q 420 140 385 107 q 474 230 455 173 q 492 358 492 287 l 492 358 q 474 488 492 431 q 420 577 455 544 q 336 609 385 609 l 336 609 q 253 577 288 609 q 200 488 218 544 q 181 358 181 431 l 181 358 q 200 230 181 287 q 253 140 218 173 q 336 107 288 107"},"1":{"ha":460,"o":"m 340 0 l 209 0 l 209 545 l 106 470 l 40 571 l 241 716 l 340 716 l 340 0"},"2":{"ha":554,"o":"m 505 0 l 51 0 l 51 119 q 69 138 53 121 q 110 180 85 154 q 163 236 134 206 q 219 295 191 266 q 268 346 246 323 q 300 380 290 369 l 300 380 q 349 449 335 417 q 363 514 363 480 l 363 514 q 352 558 363 536 q 320 595 341 580 q 268 609 298 609 l 268 609 q 217 597 238 609 q 183 566 196 585 q 163 525 170 547 l 163 525 l 45 574 q 71 629 53 601 q 117 681 89 657 q 184 718 145 704 q 270 732 222 732 l 270 732 q 391 702 340 732 q 469 624 441 672 q 496 520 496 576 l 496 520 q 482 438 496 478 q 443 361 467 397 q 388 293 418 325 l 388 293 q 356 258 374 277 q 318 219 337 239 q 281 179 299 198 q 249 145 263 160 q 225 121 234 129 l 225 121 l 228 115 l 505 115 l 505 0"},"3":{"ha":578,"o":"m 284 -16 l 284 -16 q 180 4 229 -16 q 94 64 130 24 q 39 164 57 104 l 39 164 l 163 213 q 207 138 175 164 q 284 111 238 111 l 284 111 q 336 123 312 111 q 375 157 360 135 q 390 208 390 178 l 390 208 q 375 262 390 239 q 332 297 359 284 q 266 309 304 309 l 266 309 l 207 309 l 207 428 l 261 428 q 313 440 289 428 q 351 473 336 451 q 366 524 366 495 l 366 524 q 355 569 366 549 q 324 601 344 589 q 277 612 304 612 l 277 612 q 227 599 247 612 q 195 565 207 585 q 176 525 182 545 l 176 525 l 57 574 q 97 645 69 608 q 170 707 125 681 q 278 732 215 732 l 278 732 q 394 706 344 732 q 471 635 443 679 q 499 539 499 591 l 499 539 q 486 467 499 499 q 454 412 473 434 q 412 378 434 389 l 412 378 l 412 370 q 469 333 444 358 q 509 274 494 308 q 524 196 524 239 l 524 196 q 494 89 524 137 q 410 12 464 40 q 284 -16 356 -16"},"4":{"ha":624,"o":"m 576 146 l 45 146 l 45 252 l 349 716 l 491 716 l 491 0 l 360 0 l 360 521 l 352 521 l 190 268 l 576 268 l 576 146"},"5":{"ha":575,"o":"m 288 -16 l 288 -16 q 187 5 237 -16 q 98 68 136 26 q 45 174 60 110 l 45 174 l 163 220 q 206 138 174 171 q 287 105 238 105 l 287 105 q 367 140 334 105 q 399 223 399 174 l 399 223 q 385 283 399 255 q 346 327 371 310 q 287 343 320 343 l 287 343 q 232 330 256 343 q 191 297 208 317 l 191 297 l 64 354 l 103 716 l 489 716 l 489 601 l 212 601 l 187 421 l 195 419 q 245 448 215 436 q 314 460 274 460 l 314 460 q 420 430 371 460 q 500 346 469 399 q 530 223 530 292 l 530 223 q 499 101 530 155 q 414 15 468 46 q 288 -16 359 -16"},"6":{"ha":577,"o":"m 291 -16 l 291 -16 q 188 5 234 -16 q 109 59 141 25 l 109 59 q 62 137 78 91 q 45 228 45 182 l 45 228 q 74 357 45 297 q 142 479 103 417 l 142 479 q 181 542 161 509 q 223 609 201 575 q 265 675 244 642 q 307 738 286 708 l 307 738 l 409 668 q 376 616 394 644 q 339 557 358 587 q 301 499 319 527 q 268 448 283 471 l 268 448 l 274 442 q 298 450 285 447 q 326 452 311 452 l 326 452 q 425 422 378 452 q 502 341 472 392 q 532 223 532 289 l 532 223 q 513 128 532 172 q 459 52 493 84 q 382 2 425 20 q 291 -16 338 -16 m 288 104 l 288 104 q 345 120 319 104 q 388 162 371 135 q 404 222 404 189 l 404 222 q 388 284 404 256 q 345 327 371 311 q 288 343 318 343 l 288 343 q 233 327 259 343 q 190 284 206 311 q 173 222 173 256 l 173 222 q 190 162 173 189 q 232 120 206 135 q 288 104 258 104"},"7":{"ha":555,"o":"m 184 -16 l 184 -16 l 74 45 q 170 226 122 135 q 267 407 218 316 q 363 587 315 497 l 363 587 l 359 593 l 45 593 l 45 716 l 510 716 l 510 587 q 429 437 469 512 q 347 286 388 361 q 266 135 306 210 q 184 -16 225 59"},"8":{"ha":604,"o":"m 302 -16 l 302 -16 q 173 13 229 -16 q 86 89 117 41 q 54 195 54 137 l 54 195 q 69 272 54 238 q 108 330 84 305 q 158 369 131 355 l 158 369 l 158 377 q 119 416 137 392 q 89 469 100 439 q 77 529 77 498 l 77 529 q 106 630 77 584 q 186 704 135 676 q 302 732 237 732 l 302 732 q 418 704 367 732 q 498 630 468 676 q 527 529 527 584 l 527 529 q 516 469 527 498 q 486 416 504 439 q 445 377 467 392 l 445 377 l 445 369 q 498 331 474 356 q 536 272 521 306 q 550 195 550 238 l 550 195 q 519 89 550 137 q 432 13 487 41 q 302 -16 376 -16 m 302 105 l 302 105 q 362 119 336 105 q 403 156 388 132 q 418 208 418 179 l 418 208 q 403 260 418 236 q 361 297 387 283 q 302 311 335 311 l 302 311 q 243 297 269 311 q 201 260 216 283 q 185 208 185 236 l 185 208 q 200 156 185 179 q 242 119 215 132 q 302 105 268 105 m 302 426 l 302 426 q 372 455 343 426 q 400 521 400 483 l 400 521 q 372 588 400 560 q 302 615 343 615 l 302 615 q 232 588 260 615 q 203 521 203 560 l 203 521 q 216 474 203 496 q 252 439 229 452 q 302 426 274 426"},"9":{"ha":577,"o":"m 270 -20 l 270 -20 l 168 50 q 203 104 185 76 q 240 161 221 132 q 276 216 258 189 q 309 268 293 243 l 309 268 l 303 274 q 280 267 293 270 q 251 264 266 264 l 251 264 q 152 294 199 264 q 75 376 105 324 q 45 493 45 428 l 45 493 q 79 616 45 562 q 168 701 113 670 q 286 732 223 732 l 286 732 q 393 711 345 732 q 472 653 440 689 l 472 653 q 517 578 501 621 q 532 488 532 534 l 532 488 q 503 359 532 419 q 435 237 474 299 l 435 237 q 382 154 410 198 q 324 65 353 109 q 270 -20 295 20 m 289 373 l 289 373 q 345 389 319 373 q 388 433 371 405 q 404 494 404 460 l 404 494 q 388 555 404 528 q 345 597 371 581 q 289 612 319 612 l 289 612 q 233 597 259 612 q 190 555 206 581 q 173 494 173 528 l 173 494 q 190 433 173 460 q 233 389 206 405 q 289 373 259 373"},"!":{"ha":284,"o":"m 197 246 l 87 246 l 75 510 l 75 716 l 209 716 l 209 510 l 197 246 m 142 -6 l 142 -6 q 81 20 106 -6 q 55 81 55 45 l 55 81 q 81 142 55 117 q 142 167 106 167 l 142 167 q 204 142 178 167 q 229 81 229 117 l 229 81 q 204 20 229 45 q 142 -6 178 -6"},"\"":{"ha":395,"o":"m 343 490 l 224 490 l 224 716 l 343 716 l 343 490 m 171 490 l 52 490 l 52 716 l 171 716 l 171 490"},"#":{"ha":670,"o":"m 227 0 l 117 0 l 227 716 l 337 716 l 227 0 m 61 415 l 77 517 l 641 517 l 625 415 l 61 415 m 450 0 l 339 0 l 449 716 l 560 716 l 450 0 m 30 204 l 47 306 l 611 306 l 595 204 l 30 204"},"$":{"ha":570,"o":"m 289 -16 l 289 -16 q 206 -4 246 -16 q 131 33 165 8 q 70 94 96 57 q 30 180 44 131 l 30 180 l 145 227 q 174 166 154 194 q 224 122 194 138 q 289 105 253 105 l 289 105 q 344 115 319 105 q 383 144 368 125 q 397 188 397 163 l 397 188 q 388 231 397 211 q 357 268 378 250 q 297 301 335 285 l 297 301 l 241 325 q 172 362 205 340 q 114 410 139 383 q 73 470 88 437 q 58 542 58 503 l 58 542 q 85 638 58 595 q 163 707 112 681 q 281 732 213 732 l 281 732 q 401 710 354 732 q 475 654 448 687 q 511 588 501 621 l 511 588 l 399 538 q 379 576 393 558 q 341 604 364 593 q 283 615 317 615 l 283 615 q 210 595 238 615 q 181 542 181 574 l 181 542 q 192 505 181 523 q 224 471 202 487 q 281 437 246 454 l 281 437 l 312 422 q 423 360 375 392 q 498 287 471 328 q 525 189 525 246 l 525 189 q 505 99 525 137 q 451 35 485 60 q 375 -3 417 9 q 289 -16 333 -16 m 336 -100 l 247 -100 l 247 816 l 336 816 l 336 -100"},"%":{"ha":858,"o":"m 217 390 l 217 390 q 127 413 167 390 q 64 475 87 436 q 40 561 41 514 l 40 561 q 64 647 41 608 q 127 709 87 686 q 217 732 167 732 l 217 732 q 308 709 268 732 q 371 647 348 686 q 394 561 394 608 l 394 561 q 371 475 394 514 q 308 413 348 436 q 217 390 268 390 m 217 488 l 217 488 q 266 508 246 488 q 286 561 286 528 l 286 561 q 266 614 286 594 q 217 634 246 634 l 217 634 q 169 614 189 634 q 149 561 149 594 l 149 561 q 169 508 149 528 q 217 488 189 488 m 641 -16 l 641 -16 q 551 7 591 -16 q 488 69 511 30 q 464 155 465 108 l 464 155 q 488 241 465 202 q 551 303 511 280 q 641 326 591 326 l 641 326 q 732 303 692 326 q 795 241 772 280 q 818 155 818 202 l 818 155 q 795 69 818 108 q 732 7 772 30 q 641 -16 692 -16 m 641 82 l 641 82 q 690 102 670 82 q 710 155 710 122 l 710 155 q 690 208 710 188 q 641 228 670 228 l 641 228 q 593 208 613 228 q 573 155 573 188 l 573 155 q 593 102 573 122 q 641 82 613 82 m 701 679 l 236 -16 l 157 37 l 622 732 l 701 679"},"&":{"ha":658,"o":"m 628 57 l 533 -16 l 170 423 q 130 485 146 452 q 113 554 113 518 l 113 554 q 137 645 113 604 q 203 709 161 685 q 298 732 244 732 l 298 732 q 414 699 370 732 q 476 614 457 665 l 476 614 l 371 558 q 356 588 365 574 q 333 609 346 601 q 300 617 319 617 l 300 617 q 255 600 272 617 q 238 557 238 583 l 238 557 q 245 528 238 541 q 263 499 251 514 l 263 499 l 628 57 m 300 102 l 300 102 q 366 116 337 105 q 420 151 394 126 q 474 220 446 176 q 537 333 501 264 l 537 333 l 632 273 q 564 153 598 206 q 492 62 530 99 q 410 4 454 24 q 309 -16 365 -16 l 309 -16 q 174 16 234 -16 q 79 105 114 48 q 43 235 43 162 l 43 235 q 64 331 43 285 q 124 415 85 377 q 213 474 162 452 l 213 474 l 279 381 q 220 349 244 371 q 182 299 195 327 q 169 240 169 270 l 169 240 q 189 166 169 198 q 239 117 209 134 q 300 102 269 100"},"'":{"ha":223,"o":"m 171 490 l 52 490 l 52 716 l 171 716 l 171 490"},"(":{"ha":357,"o":"m 338 -68 l 239 -136 q 178 -55 209 -103 q 121 52 147 -7 q 79 180 95 111 q 63 322 63 248 l 63 322 q 79 465 63 396 q 121 592 95 533 q 178 699 147 651 q 239 780 209 747 l 239 780 l 338 712 q 263 598 295 659 q 212 467 230 536 q 194 322 194 398 l 194 322 q 212 177 194 246 q 263 47 230 108 q 338 -68 295 -14 l 338 -68"},")":{"ha":357,"o":"m 118 -136 l 118 -136 l 19 -68 q 95 47 62 -14 q 145 177 127 108 q 163 322 163 246 l 163 322 q 145 467 163 398 q 95 598 127 536 q 19 712 62 659 l 19 712 l 118 780 q 199 666 158 736 q 267 509 239 596 q 294 322 294 421 l 294 322 q 278 180 294 248 q 236 52 262 111 q 179 -55 210 -7 q 118 -136 148 -103"},"*":{"ha":462,"o":"m 227 447 l 153 347 l 77 402 l 149 500 l 146 509 l 39 547 l 70 636 l 175 599 l 184 602 l 184 716 l 278 716 l 278 602 l 286 599 l 392 636 l 423 547 l 316 509 l 313 500 l 385 402 l 309 347 l 235 447 l 227 447"},"+":{"ha":581,"o":"m 348 43 l 232 43 l 232 499 l 348 499 l 348 43 m 519 213 l 62 213 l 62 329 l 519 329 l 519 213"},",":{"ha":284,"o":"m 203 14 l 108 -128 l 49 -89 l 109 2 q 71 32 87 10 q 55 81 55 53 l 55 81 q 81 142 55 117 q 142 167 106 167 l 142 167 q 176 161 160 167 q 204 142 192 154 q 222 115 215 130 q 229 81 229 99 l 229 81 q 226 58 229 69 q 218 37 223 47 q 203 14 212 27 l 203 14"},"-":{"ha":463,"o":"m 401 252 l 62 252 l 62 368 l 401 368 l 401 252"},".":{"ha":284,"o":"m 142 -6 l 142 -6 q 81 20 106 -6 q 55 81 55 45 l 55 81 q 81 142 55 117 q 142 167 106 167 l 142 167 q 204 142 178 167 q 229 81 229 117 l 229 81 q 204 20 229 45 q 142 -6 178 -6"},"/":{"ha":346,"o":"m 129 0 l 0 0 l 217 716 l 346 716 l 129 0"},":":{"ha":284,"o":"m 142 349 l 142 349 q 81 375 106 349 q 55 436 55 400 l 55 436 q 81 497 55 472 q 142 522 106 522 l 142 522 q 204 497 178 522 q 229 436 229 472 l 229 436 q 204 375 229 400 q 142 349 178 349 m 142 -6 l 142 -6 q 81 20 106 -6 q 55 81 55 45 l 55 81 q 81 142 55 117 q 142 167 106 167 l 142 167 q 204 142 178 167 q 229 81 229 117 l 229 81 q 204 20 229 45 q 142 -6 178 -6"},";":{"ha":284,"o":"m 142 349 l 142 349 q 81 375 106 349 q 55 436 55 400 l 55 436 q 81 497 55 472 q 142 522 106 522 l 142 522 q 204 497 178 522 q 229 436 229 472 l 229 436 q 204 375 229 400 q 142 349 178 349 m 203 14 l 108 -128 l 49 -89 l 109 2 q 71 32 87 10 q 55 81 55 53 l 55 81 q 81 142 55 117 q 142 167 106 167 l 142 167 q 176 161 160 167 q 204 142 192 154 q 222 115 215 130 q 229 81 229 99 l 229 81 q 226 58 229 69 q 218 37 223 47 q 203 14 212 27 l 203 14"},"<":{"ha":529,"o":"m 470 157 l 470 28 l 55 219 l 55 323 l 470 514 l 470 385 l 212 275 l 212 267 l 470 157"},"=":{"ha":593,"o":"m 531 311 l 62 311 l 62 427 l 531 427 l 531 311 m 531 111 l 62 111 l 62 227 l 531 227 l 531 111"},">":{"ha":529,"o":"m 474 219 l 59 28 l 59 157 l 317 267 l 317 275 l 59 385 l 59 514 l 474 323 l 474 219"},"?":{"ha":512,"o":"m 325 246 l 193 246 l 193 279 q 202 338 193 312 q 232 388 211 363 q 285 442 252 413 l 285 442 q 316 472 303 458 q 336 501 329 486 q 342 535 342 516 l 342 535 q 320 587 342 565 q 258 609 297 609 l 258 609 q 210 597 230 609 q 176 567 189 585 q 156 527 163 548 l 156 527 l 41 575 q 80 649 52 613 q 151 709 107 685 q 255 732 195 732 l 255 732 q 368 707 319 732 q 444 639 416 682 q 471 542 471 596 l 471 542 q 460 475 471 504 q 428 422 448 446 q 384 375 408 398 l 384 375 q 349 338 362 354 q 331 304 336 321 q 325 262 325 286 l 325 262 l 325 246 m 258 -6 l 258 -6 q 197 20 222 -6 q 171 81 171 45 l 171 81 q 197 142 171 117 q 258 167 222 167 l 258 167 q 319 142 294 167 q 344 81 344 117 l 344 81 q 319 20 344 45 q 258 -6 294 -6"},"@":{"ha":895,"o":"m 449 -82 l 449 -82 q 290 -52 362 -82 q 164 31 217 -22 q 82 154 111 84 q 53 304 53 224 l 53 304 q 82 454 53 384 q 163 577 110 523 q 289 660 216 630 q 449 690 361 690 l 449 690 q 609 660 536 690 q 733 577 681 630 q 814 455 785 524 q 842 308 842 386 l 842 308 q 823 200 842 248 q 768 124 804 152 q 681 96 732 96 l 681 96 q 612 115 644 96 q 563 168 579 134 l 563 168 q 528 128 548 144 q 482 104 507 112 q 425 96 456 96 l 425 96 q 327 122 371 96 q 257 194 283 148 q 231 300 231 240 l 231 300 q 258 406 231 360 q 327 478 284 452 q 421 504 370 504 l 421 504 q 468 497 447 504 q 504 479 488 490 q 529 452 519 467 l 529 452 l 537 452 l 537 490 l 635 490 l 635 244 q 649 201 635 219 q 685 183 662 183 l 685 183 q 713 193 701 183 q 733 220 725 202 q 744 260 740 237 q 747 309 747 283 l 747 309 q 725 419 747 366 q 664 512 703 471 q 570 576 624 552 q 449 599 515 599 l 449 599 q 333 578 386 599 q 239 518 279 557 q 176 424 198 478 q 153 304 153 370 l 153 304 q 177 184 153 238 q 243 91 201 130 q 338 30 284 51 q 449 9 391 9 l 449 9 q 521 18 487 9 q 582 42 554 26 l 582 42 l 616 -45 q 537 -72 580 -62 q 449 -82 493 -82 m 432 193 l 432 193 q 482 206 459 193 q 519 242 505 218 q 533 300 533 266 l 533 300 q 519 358 533 334 q 482 395 505 382 q 432 407 459 407 l 432 407 q 383 394 406 407 q 345 358 359 381 q 331 300 331 334 l 331 300 q 345 243 331 267 q 383 206 359 219 q 432 193 406 193"},"A":{"ha":722,"o":"m 164 0 l 15 0 l 283 716 l 438 716 l 707 0 l 558 0 l 391 475 l 365 561 l 357 561 l 331 475 l 164 0 m 564 171 l 353 171 l 353 295 l 520 295 l 564 171 m 353 171 l 158 171 l 201 295 l 353 295 l 353 171"},"B":{"ha":641,"o":"m 371 0 l 81 0 l 81 716 l 361 716 q 473 691 423 716 q 551 623 522 665 q 580 529 580 581 l 580 529 q 553 434 580 473 q 484 375 525 395 l 484 375 l 484 367 q 573 305 539 348 q 606 199 606 261 l 606 199 q 575 94 606 138 q 490 25 543 49 q 371 0 436 0 l 371 0 m 362 308 l 156 308 l 156 424 l 351 424 q 404 436 382 424 q 437 467 425 447 q 448 510 448 487 l 448 510 q 437 553 448 534 q 405 584 426 572 q 355 595 384 595 l 355 595 l 216 595 l 216 123 l 366 123 q 423 135 400 123 q 458 168 446 147 q 470 215 470 189 l 470 215 q 458 263 470 242 q 422 296 446 284 q 362 308 398 308 l 362 308"},"C":{"ha":745,"o":"m 420 -16 l 420 -16 q 273 13 341 -16 q 153 92 204 41 q 74 211 102 143 q 45 358 45 279 l 45 358 q 74 505 45 437 q 153 624 102 573 q 273 704 204 675 q 420 732 341 732 l 420 732 q 525 719 477 732 q 614 679 573 705 q 688 615 654 653 l 688 615 l 593 523 q 547 566 572 548 q 490 594 521 584 q 421 604 459 604 l 421 604 q 300 574 354 604 q 213 488 245 543 q 181 358 181 433 l 181 358 q 213 229 181 284 q 300 143 245 173 q 421 112 354 112 l 421 112 q 528 137 481 112 q 610 206 574 162 l 610 206 l 706 115 q 627 44 671 73 q 531 -1 583 14 q 420 -16 479 -16"},"D":{"ha":736,"o":"m 323 0 l 81 0 l 81 716 l 323 716 q 520 671 437 716 q 647 545 602 625 q 691 358 691 464 l 691 358 q 647 171 691 252 q 520 45 602 90 q 323 0 437 0 l 323 0 m 216 588 l 216 128 l 317 128 q 449 157 396 128 q 529 237 502 185 q 555 358 555 289 l 555 358 q 529 480 555 428 q 449 560 502 531 q 317 588 396 588 l 317 588 l 216 588"},"E":{"ha":586,"o":"m 535 0 l 81 0 l 81 716 l 535 716 l 535 588 l 216 588 l 216 128 l 535 128 l 535 0 m 503 294 l 156 294 l 156 422 l 503 422 l 503 294"},"F":{"ha":571,"o":"m 216 0 l 81 0 l 81 716 l 535 716 l 535 588 l 216 588 l 216 0 m 503 286 l 156 286 l 156 414 l 503 414 l 503 286"},"G":{"ha":818,"o":"m 423 -16 l 423 -16 q 278 12 346 -16 q 157 90 209 40 q 75 209 104 140 q 45 358 45 277 l 45 358 q 75 508 45 439 q 156 626 104 576 q 277 704 208 676 q 423 732 345 732 l 423 732 q 578 702 509 732 q 696 619 647 672 l 696 619 l 603 528 q 553 570 580 553 q 494 595 526 586 q 422 604 462 604 l 422 604 q 330 587 373 604 q 253 537 286 569 q 200 459 219 504 q 181 358 181 414 l 181 358 q 200 257 181 302 q 253 180 219 212 q 330 130 286 147 q 424 112 374 112 l 424 112 q 513 126 474 112 q 580 164 552 140 q 624 218 607 188 q 645 278 640 247 l 645 278 l 420 278 l 420 393 l 771 393 q 776 363 774 383 q 778 330 778 343 l 778 330 l 778 330 l 778 330 l 778 330 q 752 187 778 251 q 678 78 725 123 q 565 8 630 32 q 423 -16 500 -16"},"H":{"ha":733,"o":"m 216 0 l 81 0 l 81 716 l 216 716 l 216 0 m 577 302 l 156 302 l 156 430 l 577 430 l 577 302 m 652 0 l 517 0 l 517 716 l 652 716 l 652 0"},"I":{"ha":297,"o":"m 216 0 l 81 0 l 81 716 l 216 716 l 216 0"},"J":{"ha":567,"o":"m 261 -16 l 261 -16 q 113 31 176 -16 q 24 157 49 77 l 24 157 l 148 208 q 190 137 161 161 q 261 112 219 112 l 261 112 q 334 142 307 112 q 360 226 360 172 l 360 226 l 360 716 l 495 716 l 495 227 q 464 93 495 147 q 379 12 432 39 q 261 -16 326 -16"},"K":{"ha":685,"o":"m 216 0 l 81 0 l 81 716 l 216 716 l 216 293 l 216 0 m 676 0 l 511 0 l 263 353 l 356 460 l 676 8 l 676 0 m 649 708 l 151 132 l 153 320 l 486 716 l 649 716 l 649 708"},"L":{"ha":547,"o":"m 519 0 l 81 0 l 81 716 l 216 716 l 216 128 l 519 128 l 519 0"},"M":{"ha":899,"o":"m 214 0 l 81 0 l 81 716 l 255 716 l 445 213 l 453 213 l 643 716 l 818 716 l 818 0 l 684 0 l 684 353 l 692 472 l 684 472 l 502 0 l 397 0 l 214 472 l 206 472 l 214 353 l 214 0"},"N":{"ha":741,"o":"m 214 0 l 81 0 l 81 716 l 238 716 l 526 236 l 534 236 l 526 374 l 526 716 l 660 716 l 660 0 l 518 0 l 214 507 l 206 507 l 214 369 l 214 0"},"O":{"ha":838,"o":"m 419 -16 l 419 -16 q 271 13 339 -16 q 152 93 202 41 q 73 212 101 144 q 45 358 45 280 l 45 358 q 73 504 45 436 q 152 624 101 572 q 271 704 202 675 q 419 732 339 732 l 419 732 q 567 704 499 732 q 686 624 635 675 q 765 504 737 572 q 793 358 793 436 l 793 358 q 765 212 793 280 q 686 93 737 144 q 567 13 635 41 q 419 -16 499 -16 m 419 112 l 419 112 q 540 143 486 112 q 626 230 594 174 q 658 358 658 285 l 658 358 q 626 487 658 432 q 540 573 594 542 q 419 604 486 604 l 419 604 q 299 573 353 604 q 213 487 245 542 q 181 358 181 432 l 181 358 q 213 230 181 285 q 299 143 245 174 q 419 112 353 112"},"P":{"ha":608,"o":"m 216 0 l 81 0 l 81 716 l 333 716 q 457 688 402 716 q 545 608 512 659 q 577 490 577 557 l 577 490 q 545 372 577 423 q 457 292 512 320 q 333 263 402 263 l 333 263 l 156 263 l 156 391 l 337 391 q 396 405 372 391 q 432 442 420 419 q 444 490 444 464 l 444 490 q 432 538 444 516 q 396 574 420 560 q 337 588 372 588 l 337 588 l 216 588 l 216 0"},"Q":{"ha":838,"o":"m 419 -16 l 419 -16 q 271 13 339 -16 q 152 93 202 41 q 73 212 101 144 q 45 358 45 280 l 45 358 q 73 504 45 436 q 152 624 101 572 q 271 704 202 675 q 419 732 339 732 l 419 732 q 567 704 499 732 q 686 624 635 675 q 765 504 737 572 q 793 358 793 436 l 793 358 q 765 212 793 280 q 687 93 737 144 q 568 13 636 41 q 419 -16 499 -16 m 730 0 l 630 -67 l 422 244 l 522 312 l 730 0 m 420 112 l 420 112 q 540 143 486 112 q 626 230 594 174 q 658 358 658 285 l 658 358 q 626 487 658 432 q 540 573 594 542 q 419 604 486 604 l 419 604 q 299 573 353 604 q 213 487 245 542 q 181 358 181 432 l 181 358 q 213 230 181 285 q 299 143 245 174 q 420 112 353 112"},"R":{"ha":639,"o":"m 216 0 l 81 0 l 81 716 l 342 716 q 468 687 414 716 q 551 607 521 658 q 581 490 581 556 l 581 490 q 561 401 581 441 q 505 331 540 360 q 422 285 469 301 q 320 269 374 269 l 320 269 l 156 269 l 156 393 l 341 393 q 395 406 372 393 q 432 442 418 419 q 445 492 445 464 l 445 492 q 434 541 445 518 q 399 577 422 563 q 343 591 376 591 l 343 591 l 216 591 l 216 0 m 464 0 l 239 325 l 397 325 l 619 8 l 619 0 l 464 0"},"S":{"ha":582,"o":"m 297 -16 l 297 -16 q 183 7 236 -16 q 90 76 129 30 q 30 187 50 121 l 30 187 l 157 237 q 206 148 171 184 q 298 112 241 112 l 298 112 q 351 122 326 112 q 392 150 376 131 q 407 197 407 169 l 407 197 q 394 244 407 224 q 351 281 381 263 q 268 317 320 298 l 268 317 l 224 333 q 166 361 195 344 q 112 402 136 377 q 72 458 87 426 q 57 531 57 490 l 57 531 q 86 633 57 587 q 167 705 115 678 q 288 732 219 732 l 288 732 q 407 708 360 732 q 481 648 454 683 q 518 580 507 613 l 518 580 l 399 530 q 379 568 393 550 q 343 597 365 586 q 290 608 321 608 l 290 608 q 238 599 261 608 q 202 573 215 589 q 189 534 189 556 l 189 534 q 217 479 189 502 q 305 436 244 456 l 305 436 l 350 421 q 423 391 388 408 q 484 347 457 373 q 527 285 511 321 q 542 199 542 249 l 542 199 q 520 103 542 144 q 462 36 498 62 q 383 -3 426 10 q 297 -16 339 -16"},"T":{"ha":579,"o":"m 357 0 l 222 0 l 222 648 l 357 648 l 357 0 m 557 588 l 22 588 l 22 716 l 557 716 l 557 588"},"U":{"ha":700,"o":"m 350 -16 l 350 -16 q 204 20 266 -16 q 107 124 141 56 q 72 285 72 191 l 72 285 l 72 716 l 206 716 l 206 277 q 222 193 206 230 q 271 134 238 155 q 350 112 303 112 l 350 112 q 430 134 398 112 q 478 193 462 155 q 494 277 494 230 l 494 277 l 494 716 l 628 716 l 628 285 q 594 128 628 196 q 498 22 560 60 q 350 -16 436 -16"},"V":{"ha":686,"o":"m 410 0 l 268 0 l 15 716 l 161 716 l 309 284 l 335 193 l 343 193 l 371 284 l 525 716 l 671 716 l 410 0"},"W":{"ha":981,"o":"m 345 0 l 206 0 l 16 716 l 166 716 l 264 314 l 276 239 l 284 239 l 300 314 l 426 716 l 559 716 l 682 314 l 698 241 l 706 241 l 718 314 l 815 716 l 965 716 l 780 0 l 635 0 l 513 432 l 497 509 l 489 509 l 473 432 l 345 0"},"X":{"ha":682,"o":"m 321 258 l 31 716 l 198 716 l 337 482 l 366 482 l 669 0 l 501 0 l 345 258 l 321 258 m 181 0 l 13 0 l 315 482 l 345 482 l 483 716 l 651 716 l 361 258 l 337 258 l 181 0"},"Y":{"ha":633,"o":"m 386 0 l 251 0 l 251 393 l 386 393 l 386 0 m 251 333 l 10 716 l 171 716 l 314 477 l 322 477 l 460 716 l 623 716 l 386 333 l 251 333"},"Z":{"ha":608,"o":"m 564 0 l 40 0 l 40 136 l 403 588 l 56 588 l 56 716 l 560 716 l 560 580 l 201 128 l 564 128 l 564 0"},"[":{"ha":365,"o":"m 329 -124 l 81 -124 l 81 792 l 329 792 l 329 684 l 209 684 l 209 -16 l 329 -16 l 329 -124"},"\\":{"ha":346,"o":"m 346 0 l 217 0 l 0 716 l 129 716 l 346 0"},"]":{"ha":365,"o":"m 284 -124 l 36 -124 l 36 -16 l 156 -16 l 156 684 l 36 684 l 36 792 l 284 792 l 284 -124"},"^":{"ha":513,"o":"m 147 410 l 11 410 l 202 716 l 311 716 l 502 410 l 366 410 l 261 592 l 253 592 l 147 410"},"_":{"ha":499,"o":"m 499 -216 l 0 -216 l 0 -100 l 499 -100 l 499 -216"},"`":{"ha":443,"o":"m 297 602 l 192 602 l 102 736 l 255 736 l 297 602"},"a":{"ha":560,"o":"m 220 -16 l 220 -16 q 125 6 166 -16 q 59 66 83 27 q 35 156 35 105 l 35 156 q 63 247 35 209 q 137 306 90 285 q 240 327 183 327 l 240 327 q 297 324 271 327 q 342 315 322 320 q 375 304 362 310 l 375 304 l 375 326 q 344 394 375 367 q 259 420 313 420 l 259 420 q 190 404 223 420 q 134 360 156 387 l 134 360 l 50 426 q 108 481 75 458 q 181 515 141 503 q 265 526 221 526 l 265 526 q 443 472 382 526 q 504 314 504 418 l 504 314 l 504 0 l 375 0 l 375 52 l 367 52 q 332 19 353 34 q 283 -6 311 3 q 220 -16 255 -16 m 251 86 l 251 86 q 319 104 291 86 q 361 149 346 121 q 375 208 375 177 l 375 208 q 325 226 353 219 q 268 232 297 232 l 268 232 q 188 210 210 232 q 166 156 166 188 l 166 156 q 188 106 166 126 q 251 86 209 86"},"b":{"ha":628,"o":"m 347 -16 l 347 -16 q 280 -5 310 -16 q 229 24 250 6 q 194 61 207 41 l 194 61 l 186 61 l 186 0 l 63 0 l 63 716 l 194 716 l 194 520 l 186 448 l 194 448 q 229 486 207 468 q 280 515 250 504 q 347 526 310 526 l 347 526 q 473 492 417 526 q 561 396 528 457 q 593 255 593 335 l 593 255 q 561 114 593 175 q 473 19 528 53 q 347 -16 417 -16 m 324 105 l 324 105 q 393 124 361 105 q 444 176 424 142 q 463 255 463 210 l 463 255 q 444 334 463 301 q 393 386 424 367 q 324 404 361 404 l 324 404 q 257 386 288 404 q 206 334 225 367 q 186 255 186 300 l 186 255 q 206 177 186 210 q 257 124 225 143 q 324 105 288 105"},"c":{"ha":567,"o":"m 303 -16 l 303 -16 q 165 19 225 -16 q 70 115 104 53 q 35 255 35 176 l 35 255 q 70 395 35 334 q 165 491 104 456 q 303 526 225 526 l 303 526 q 449 490 388 526 q 537 386 510 454 l 537 386 l 417 336 q 372 388 401 371 q 303 404 343 404 l 303 404 q 233 386 264 404 q 184 334 202 367 q 166 255 166 301 l 166 255 q 184 176 166 209 q 233 124 202 142 q 303 105 264 105 l 303 105 q 376 125 347 105 q 423 178 405 144 l 423 178 l 540 126 q 449 23 510 62 q 303 -16 388 -16"},"d":{"ha":628,"o":"m 282 -16 l 282 -16 q 156 19 212 -16 q 68 114 100 53 q 35 255 35 175 l 35 255 q 68 396 35 335 q 156 492 100 457 q 282 526 212 526 l 282 526 q 349 515 319 526 q 401 486 379 504 q 435 448 423 468 l 435 448 l 443 448 l 435 520 l 435 716 l 565 716 l 565 0 l 443 0 l 443 61 l 435 61 q 401 24 423 41 q 349 -5 379 6 q 282 -16 319 -16 m 304 105 l 304 105 q 373 124 341 105 q 424 177 404 143 q 443 255 443 210 l 443 255 q 424 334 443 300 q 373 386 404 367 q 304 404 341 404 l 304 404 q 237 386 268 404 q 186 334 205 367 q 166 255 166 301 l 166 255 q 186 176 166 210 q 237 124 205 142 q 304 105 268 105"},"e":{"ha":584,"o":"m 302 -16 l 302 -16 q 165 19 225 -16 q 70 115 104 54 q 35 254 35 176 l 35 254 q 69 389 35 327 q 162 489 103 451 q 297 526 221 526 l 297 526 q 435 491 379 526 q 520 398 491 456 q 549 268 549 339 l 549 268 q 548 241 549 252 q 546 224 547 229 l 546 224 l 108 224 l 108 317 l 423 317 q 413 352 422 334 q 388 385 404 370 q 350 410 372 400 q 298 419 327 419 l 298 419 q 229 399 260 419 q 179 344 197 379 q 161 259 161 308 l 161 259 q 180 173 161 208 q 232 119 199 137 q 304 100 264 100 l 304 100 q 383 121 351 100 q 433 172 415 141 l 433 172 l 539 120 q 445 21 503 57 q 302 -16 387 -16"},"f":{"ha":392,"o":"m 121 398 l 25 398 l 25 510 l 121 510 l 121 398 m 247 0 l 116 0 l 116 538 q 140 637 116 595 q 206 702 163 679 q 306 724 248 724 l 306 724 q 347 721 326 724 q 387 713 368 718 l 387 713 l 387 585 q 354 597 370 593 q 322 601 338 601 l 322 601 q 268 582 288 601 q 247 527 247 562 l 247 527 l 247 0 m 372 398 l 242 398 l 242 510 l 372 510 l 372 398"},"g":{"ha":622,"o":"m 298 -232 l 298 -232 q 179 -210 229 -232 q 96 -155 128 -189 q 51 -84 64 -121 l 51 -84 l 174 -34 q 223 -93 190 -71 q 298 -116 255 -116 l 298 -116 q 396 -78 359 -116 q 433 30 433 -41 l 433 30 l 433 70 l 425 70 q 362 18 401 36 q 273 0 323 0 l 273 0 q 157 32 211 0 q 69 123 102 64 q 35 263 35 182 l 35 263 q 69 404 35 345 q 157 494 102 462 q 273 526 211 526 l 273 526 q 362 509 323 526 q 425 456 401 491 l 425 456 l 433 456 l 433 510 l 559 510 l 559 35 q 527 -107 559 -47 q 437 -199 495 -167 q 298 -232 378 -232 m 300 119 l 300 119 q 366 136 335 119 q 415 185 396 152 q 433 263 433 217 l 433 263 q 415 343 433 311 q 366 391 396 375 q 300 407 335 407 l 300 407 q 234 391 265 407 q 185 343 203 375 q 166 263 166 311 l 166 263 q 185 184 166 216 q 234 135 203 151 q 300 119 265 119"},"h":{"ha":600,"o":"m 194 0 l 63 0 l 63 716 l 194 716 l 194 535 l 186 446 l 194 446 q 258 504 216 481 q 349 526 299 526 l 349 526 q 455 501 412 526 q 520 428 498 475 q 541 317 541 381 l 541 317 l 541 0 l 410 0 l 410 301 q 398 358 410 335 q 364 392 385 380 q 313 404 342 404 l 313 404 q 251 385 278 404 q 209 332 224 365 q 194 259 194 299 l 194 259 l 194 0"},"i":{"ha":257,"o":"m 194 0 l 63 0 l 63 510 l 194 510 l 194 0 m 129 566 l 129 566 q 69 591 94 566 q 44 651 44 616 l 44 651 q 69 711 44 686 q 129 735 94 735 l 129 735 q 189 711 164 735 q 213 651 213 686 l 213 651 q 189 591 213 616 q 129 566 164 566"},"j":{"ha":257,"o":"m 33 -226 l 33 -226 q -1 -224 14 -226 q -35 -219 -17 -223 l -35 -219 l -35 -92 q -10 -102 -24 -98 q 18 -106 3 -106 l 18 -106 q 53 -91 42 -106 q 63 -47 63 -76 l 63 -47 l 63 510 l 194 510 l 194 -50 q 172 -152 194 -114 q 114 -208 150 -191 q 33 -226 77 -226 m 129 566 l 129 566 q 69 591 94 566 q 44 651 44 616 l 44 651 q 69 711 44 686 q 129 735 94 735 l 129 735 q 189 711 164 735 q 213 651 213 686 l 213 651 q 189 591 213 616 q 129 566 164 566"},"k":{"ha":557,"o":"m 194 0 l 63 0 l 63 716 l 194 716 l 194 0 m 545 502 l 140 107 l 140 269 l 384 510 l 545 510 l 545 502 m 554 0 l 399 0 l 227 275 l 318 364 l 554 8 l 554 0"},"l":{"ha":257,"o":"m 194 0 l 63 0 l 63 716 l 194 716 l 194 0"},"m":{"ha":908,"o":"m 194 0 l 63 0 l 63 510 l 186 510 l 186 446 l 194 446 q 233 488 210 470 q 286 516 256 506 q 349 526 315 526 l 349 526 q 445 500 405 526 q 500 436 484 474 l 500 436 q 566 500 523 473 q 671 526 608 526 l 671 526 q 805 472 760 526 q 849 328 849 418 l 849 328 l 849 0 l 719 0 l 719 304 q 696 379 719 353 q 634 404 673 404 l 634 404 q 575 386 600 404 q 536 334 549 367 q 522 257 522 301 l 522 257 l 522 0 l 391 0 l 391 304 q 368 379 391 353 q 301 404 344 404 l 301 404 q 245 386 269 404 q 207 334 220 367 q 194 257 194 301 l 194 257 l 194 0"},"n":{"ha":597,"o":"m 194 0 l 63 0 l 63 510 l 186 510 l 186 446 l 194 446 q 259 505 217 483 q 350 526 301 526 l 350 526 q 491 469 444 526 q 538 317 538 412 l 538 317 l 538 0 l 407 0 l 407 301 q 382 378 407 351 q 312 404 356 404 l 312 404 q 250 385 276 404 q 209 333 223 365 q 194 260 194 300 l 194 260 l 194 0"},"o":{"ha":613,"o":"m 307 -16 l 307 -16 q 166 20 227 -16 q 70 117 104 55 q 35 255 35 178 l 35 255 q 70 394 35 332 q 166 491 104 455 q 307 526 227 526 l 307 526 q 448 490 387 526 q 544 393 509 454 q 578 255 578 332 l 578 255 q 544 117 578 178 q 448 20 509 55 q 307 -16 387 -16 m 307 106 l 307 106 q 377 124 345 106 q 428 175 408 141 q 447 255 447 208 l 447 255 q 428 335 447 302 q 377 386 408 368 q 308 404 345 404 l 308 404 q 238 386 270 404 q 186 335 205 368 q 166 255 166 302 l 166 255 q 186 175 166 208 q 238 124 205 141 q 307 106 270 106"},"p":{"ha":628,"o":"m 194 -216 l 63 -216 l 63 510 l 186 510 l 186 448 l 194 448 q 229 486 207 468 q 280 515 250 504 q 347 526 310 526 l 347 526 q 473 492 417 526 q 561 396 528 457 q 593 255 593 335 l 593 255 q 561 114 593 175 q 473 19 528 53 q 347 -16 417 -16 l 347 -16 q 253 8 292 -16 q 194 61 213 31 l 194 61 l 186 61 l 194 -11 l 194 -216 m 324 105 l 324 105 q 393 124 361 105 q 444 176 424 142 q 463 255 463 210 l 463 255 q 444 334 463 301 q 393 386 424 367 q 324 404 361 404 l 324 404 q 257 386 288 404 q 206 334 225 367 q 186 255 186 300 l 186 255 q 206 177 186 210 q 257 124 225 143 q 324 105 288 105"},"q":{"ha":628,"o":"m 565 -216 l 435 -216 l 435 -11 l 443 61 l 435 61 q 401 24 423 41 q 349 -5 379 6 q 282 -16 319 -16 l 282 -16 q 156 19 212 -16 q 68 114 100 53 q 35 255 35 175 l 35 255 q 68 396 35 335 q 156 492 100 457 q 282 526 212 526 l 282 526 q 349 515 319 526 q 401 486 379 504 q 435 448 423 468 l 435 448 l 443 448 l 443 510 l 565 510 l 565 -216 m 304 105 l 304 105 q 373 124 341 105 q 424 177 404 143 q 443 255 443 210 l 443 255 q 424 334 443 300 q 373 386 404 367 q 304 404 341 404 l 304 404 q 237 386 268 404 q 186 334 205 367 q 166 255 166 301 l 166 255 q 186 176 166 210 q 237 124 205 142 q 304 105 268 105"},"r":{"ha":421,"o":"m 194 0 l 63 0 l 63 510 l 186 510 l 186 442 l 194 442 q 229 485 207 466 q 279 514 250 503 q 341 525 308 525 l 341 525 q 377 522 361 525 q 405 514 393 519 l 405 514 l 405 383 q 364 397 384 391 q 320 402 343 402 l 320 402 q 253 383 281 402 q 209 330 224 363 q 194 254 194 296 l 194 254 l 194 0"},"s":{"ha":503,"o":"m 257 -16 l 257 -16 q 145 3 191 -16 q 69 53 98 22 q 26 121 40 84 l 26 121 l 143 172 q 189 118 160 136 q 257 99 218 99 l 257 99 q 315 110 289 99 q 341 148 341 120 l 341 148 q 328 180 341 168 q 294 198 314 191 q 253 208 274 204 l 253 208 l 193 221 q 123 250 156 229 q 70 302 90 270 q 49 374 49 333 l 49 374 q 76 454 49 420 q 148 507 102 488 q 248 526 193 526 l 248 526 q 340 514 299 526 q 411 478 381 502 q 459 415 441 453 l 459 415 l 347 366 q 306 408 331 396 q 251 420 280 420 l 251 420 q 197 407 217 420 q 177 376 177 394 l 177 376 q 197 343 177 357 q 245 322 217 329 l 245 322 l 320 304 q 435 246 396 286 q 473 150 473 206 l 473 150 q 444 63 473 100 q 366 5 415 25 q 257 -16 317 -16"},"t":{"ha":415,"o":"m 119 398 l 25 398 l 25 510 l 119 510 l 119 398 m 283 -8 l 283 -8 q 159 38 204 -8 q 114 163 114 83 l 114 163 l 114 654 l 245 654 l 245 187 q 260 133 245 150 q 309 115 275 115 l 309 115 q 339 120 325 115 q 374 137 353 124 l 374 137 l 374 9 q 330 -3 352 1 q 283 -8 307 -8 m 370 398 l 240 398 l 240 510 l 370 510 l 370 398"},"u":{"ha":597,"o":"m 247 -16 l 247 -16 q 106 42 153 -16 q 59 200 59 100 l 59 200 l 59 510 l 190 510 l 190 216 q 216 135 190 164 q 281 105 241 105 l 281 105 q 347 125 320 105 q 389 177 374 144 q 403 250 403 210 l 403 250 l 403 510 l 534 510 l 534 0 l 411 0 l 411 64 l 403 64 q 364 22 388 40 q 311 -6 340 4 q 247 -16 281 -16"},"v":{"ha":572,"o":"m 350 0 l 220 0 l 4 510 l 153 510 l 282 178 l 290 178 l 421 510 l 568 510 l 350 0"},"w":{"ha":832,"o":"m 308 0 l 168 0 l 6 510 l 153 510 l 241 179 l 248 179 l 350 510 l 484 510 l 586 179 l 593 179 l 681 510 l 826 510 l 663 0 l 522 0 l 418 330 l 411 330 l 308 0"},"x":{"ha":522,"o":"m 161 0 l 6 0 l 222 316 l 235 316 l 356 510 l 516 510 l 299 206 l 294 206 l 161 0 m 219 208 l 7 510 l 162 510 l 294 312 l 300 312 l 516 0 l 361 0 l 224 208 l 219 208"},"y":{"ha":570,"o":"m 261 -193 l 261 -193 q 256 -205 258 -200 q 251 -216 253 -211 l 251 -216 l 110 -216 q 126 -182 114 -208 q 145 -139 137 -157 l 145 -139 q 159 -108 151 -127 q 176 -70 167 -89 q 189 -42 184 -52 l 189 -42 l 266 129 l 293 193 l 420 510 l 566 510 l 303 -96 q 284 -141 292 -122 q 270 -172 275 -160 q 261 -193 265 -185 m 300 193 l 226 8 l 4 510 l 153 510 l 285 193 l 300 193"},"z":{"ha":508,"o":"m 475 0 l 40 0 l 40 107 l 306 399 l 48 399 l 48 510 l 467 510 l 467 403 l 201 111 l 475 111 l 475 0"},"{":{"ha":335,"o":"m 304 -124 l 270 -124 q 172 -101 213 -124 q 109 -38 131 -79 q 87 59 87 3 l 87 59 l 87 213 q 78 251 87 236 q 55 272 69 265 q 23 279 40 279 l 23 279 l 23 389 q 55 396 40 389 q 78 418 69 403 q 87 455 87 433 l 87 455 l 87 609 q 109 706 87 665 q 172 770 131 747 q 270 792 213 792 l 270 792 l 304 792 l 304 684 l 288 684 q 237 663 258 684 q 215 604 215 641 l 215 604 l 215 458 q 200 379 215 408 q 145 338 184 349 l 145 338 l 145 330 q 200 290 184 319 q 215 210 215 260 l 215 210 l 215 64 q 237 6 215 27 q 288 -16 258 -16 l 288 -16 l 304 -16 l 304 -124"},"|":{"ha":282,"o":"m 201 -120 l 81 -120 l 81 792 l 201 792 l 201 -120"},"}":{"ha":335,"o":"m 66 -124 l 31 -124 l 31 -16 l 48 -16 q 99 6 78 -16 q 120 64 120 27 l 120 64 l 120 210 q 136 290 120 260 q 191 330 152 319 l 191 330 l 191 338 q 136 379 152 349 q 120 458 120 408 l 120 458 l 120 604 q 99 663 120 641 q 48 684 78 684 l 48 684 l 31 684 l 31 792 l 66 792 q 165 770 124 792 q 227 706 205 747 q 248 609 248 665 l 248 609 l 248 455 q 257 418 248 433 q 281 396 266 403 q 312 389 296 389 l 312 389 l 312 279 q 281 272 296 279 q 257 251 266 265 q 248 213 248 236 l 248 213 l 248 59 q 227 -38 248 3 q 165 -101 205 -79 q 66 -124 124 -124 l 66 -124"},"~":{"ha":563,"o":"m 393 223 l 393 223 q 329 234 360 223 q 268 258 297 245 l 268 258 q 225 275 245 267 q 188 282 205 282 l 188 282 q 154 270 165 282 q 141 239 143 257 l 141 239 l 37 239 q 53 321 37 286 q 99 374 69 355 q 170 393 129 393 l 170 393 q 238 382 205 393 q 298 358 270 370 l 298 358 q 341 341 321 348 q 376 334 360 334 l 376 334 q 411 347 399 334 q 423 377 422 359 l 423 377 l 527 377 q 511 296 527 331 q 465 242 495 261 q 393 223 435 223"}}}
